<svg xmlns="http://www.w3.org/2000/svg" version="1.1" xmlns:xlink="http://www.w3.org/1999/xlink" xmlns:svgjs="http://svgjs.dev/svgjs" width="1000" height="191" viewBox="0 0 1000 191"><g transform="matrix(1,0,0,1,-0.6060606060606233,-0.2118733957959904)"><svg viewBox="0 0 396 76" data-background-color="#ffffff" preserveAspectRatio="xMidYMid meet" height="191" width="1000" xmlns="http://www.w3.org/2000/svg" xmlns:xlink="http://www.w3.org/1999/xlink"><g id="tight-bounds" transform="matrix(1,0,0,1,0.2400000000000091,0.08430564440050148)"><svg viewBox="0 0 395.52 75.83138871119903" height="75.83138871119903" width="395.52"><g><svg viewBox="0 0 512.9323413750324 98.3423638788317" height="75.83138871119903" width="395.52"><g transform="matrix(1,0,0,1,0,28.976437983866976)"><svg viewBox="0 0 395.52 40.38948791109775" height="40.38948791109775" width="395.52"><g id="textblocktransform"><svg viewBox="0 0 395.52 40.38948791109775" height="40.38948791109775" width="395.52" id="textblock"><g><svg viewBox="0 0 395.52 40.38948791109775" height="40.38948791109775" width="395.52"><g transform="matrix(1,0,0,1,0,0)"><svg width="395.52" viewBox="2.6 -33.4 332.91999999999996 34" height="40.38948791109775" data-palette-color="#30017e"><path d="M16.9 0.6L16.9 0.6Q13.8 0.6 11.2-0.55 8.6-1.7 6.68-3.88 4.75-6.05 3.68-9.22 2.6-12.4 2.6-16.4L2.6-16.4Q2.6-20.35 3.7-23.5 4.8-26.65 6.75-28.85 8.7-31.05 11.35-32.23 14-33.4 17.15-33.4L17.15-33.4Q20.15-33.4 22.43-32.18 24.7-30.95 26.15-29.35L26.15-29.35 23.9-26.65Q22.6-28.05 20.95-28.9 19.3-29.75 17.2-29.75L17.2-29.75Q14.85-29.75 12.95-28.83 11.05-27.9 9.7-26.18 8.35-24.45 7.63-22 6.9-19.55 6.9-16.5L6.9-16.5Q6.9-13.4 7.63-10.93 8.35-8.45 9.65-6.7 10.95-4.95 12.83-4 14.7-3.05 17.05-3.05L17.05-3.05Q19.45-3.05 21.25-4.03 23.05-5 24.65-6.75L24.65-6.75 26.95-4.15Q25-1.9 22.55-0.65 20.1 0.6 16.9 0.6ZM38.7-18.35L38.7-18.35 37.15-13.35 47-13.35 45.45-18.35Q44.55-21.1 43.75-23.83 42.95-26.55 42.15-29.4L42.15-29.4 41.95-29.4Q41.2-26.55 40.4-23.83 39.6-21.1 38.7-18.35ZM32.95 0L28.7 0 39.8-32.8 44.5-32.8 55.6 0 51.15 0 48.05-10 36.1-10 32.95 0ZM64 0L60.25 0 60.25-32.8 65.25-32.8 71.55-15.3Q72.15-13.6 72.72-11.88 73.3-10.15 73.9-8.45L73.9-8.45 74.09-8.45Q74.7-10.15 75.22-11.88 75.75-13.6 76.34-15.3L76.34-15.3 82.55-32.8 87.59-32.8 87.59 0 83.7 0 83.7-18.05Q83.7-20.25 83.9-22.9 84.09-25.55 84.25-27.75L84.25-27.75 84.05-27.75 81.45-20.3 75.25-3.3 72.5-3.3 66.3-20.3 63.7-27.75 63.5-27.75Q63.65-25.55 63.82-22.9 64-20.25 64-18.05L64-18.05 64 0ZM115.99 0L96.59 0 96.59-32.8 115.49-32.8 115.49-29.3 100.74-29.3 100.74-19 113.19-19 113.19-15.45 100.74-15.45 100.74-3.55 115.99-3.55 115.99 0ZM127.09 0L122.94 0 122.94-32.8 133.19-32.8Q135.69-32.8 137.81-32.33 139.94-31.85 141.47-30.75 142.99-29.65 143.84-27.9 144.69-26.15 144.69-23.6L144.69-23.6Q144.69-19.75 142.69-17.45 140.69-15.15 137.29-14.3L137.29-14.3 145.64 0 140.94 0 133.04-13.85 127.09-13.85 127.09 0ZM127.09-29.45L127.09-17.25 132.59-17.25Q136.44-17.25 138.49-18.82 140.54-20.4 140.54-23.6L140.54-23.6Q140.54-26.85 138.49-28.15 136.44-29.45 132.59-29.45L132.59-29.45 127.09-29.45ZM159.79 0L151.39 0 151.39-32.8 159.59-32.8Q167.19-32.8 171.14-28.6 175.09-24.4 175.09-16.55L175.09-16.55Q175.09-12.65 174.09-9.58 173.09-6.5 171.14-4.38 169.19-2.25 166.34-1.13 163.49 0 159.79 0L159.79 0ZM155.54-29.4L155.54-3.4 159.29-3.4Q165.04-3.4 167.91-6.85 170.79-10.3 170.79-16.55L170.79-16.55Q170.79-22.8 167.91-26.1 165.04-29.4 159.29-29.4L159.29-29.4 155.54-29.4ZM186.28 0L182.13 0 182.13-32.8 186.28-32.8 186.28 0ZM199.43 0L195.28 0 195.28-32.8 204.63-32.8Q207.38-32.8 209.66-32.3 211.93-31.8 213.53-30.68 215.13-29.55 216.03-27.7 216.93-25.85 216.93-23.15L216.93-23.15Q216.93-20.55 216.06-18.65 215.18-16.75 213.58-15.5 211.98-14.25 209.76-13.63 207.53-13 204.83-13L204.83-13 199.43-13 199.43 0ZM199.43-29.45L199.43-16.4 204.33-16.4Q208.63-16.4 210.71-18.03 212.78-19.65 212.78-23.15L212.78-23.15Q212.78-26.7 210.61-28.08 208.43-29.45 204.13-29.45L204.13-29.45 199.43-29.45ZM242.08 0L223.58 0 223.58-32.8 227.73-32.8 227.73-3.55 242.08-3.55 242.08 0ZM258.68 0.6L258.68 0.6Q255.58 0.6 253-0.6 250.43-1.8 248.58-4.03 246.73-6.25 245.7-9.43 244.68-12.6 244.68-16.55L244.68-16.55Q244.68-20.5 245.7-23.63 246.73-26.75 248.58-28.93 250.43-31.1 253-32.25 255.58-33.4 258.68-33.4L258.68-33.4Q261.78-33.4 264.35-32.23 266.93-31.05 268.8-28.88 270.68-26.7 271.7-23.58 272.73-20.45 272.73-16.55L272.73-16.55Q272.73-12.6 271.7-9.43 270.68-6.25 268.8-4.03 266.93-1.8 264.35-0.6 261.78 0.6 258.68 0.6ZM258.68-3.05L258.68-3.05Q260.88-3.05 262.65-4 264.43-4.95 265.7-6.73 266.98-8.5 267.68-10.98 268.38-13.45 268.38-16.55L268.38-16.55Q268.38-19.6 267.68-22.05 266.98-24.5 265.7-26.2 264.43-27.9 262.65-28.83 260.88-29.75 258.68-29.75L258.68-29.75Q256.48-29.75 254.7-28.83 252.93-27.9 251.65-26.2 250.38-24.5 249.68-22.05 248.98-19.6 248.98-16.55L248.98-16.55Q248.98-13.45 249.68-10.98 250.38-8.5 251.65-6.73 252.93-4.95 254.7-4 256.48-3.05 258.68-3.05ZM283.53 0L279.78 0 279.78-32.8 284.78-32.8 291.08-15.3Q291.68-13.6 292.25-11.88 292.83-10.15 293.43-8.45L293.43-8.45 293.63-8.45Q294.23-10.15 294.75-11.88 295.28-13.6 295.88-15.3L295.88-15.3 302.08-32.8 307.13-32.8 307.13 0 303.23 0 303.23-18.05Q303.23-20.25 303.43-22.9 303.63-25.55 303.78-27.75L303.78-27.75 303.58-27.75 300.98-20.3 294.78-3.3 292.03-3.3 285.83-20.3 283.23-27.75 283.03-27.75Q283.18-25.55 283.35-22.9 283.53-20.25 283.53-18.05L283.53-18.05 283.53 0ZM335.52 0L316.12 0 316.12-32.8 335.02-32.8 335.02-29.3 320.27-29.3 320.27-19 332.72-19 332.72-15.45 320.27-15.45 320.27-3.55 335.52-3.55 335.52 0Z" opacity="1" transform="matrix(1,0,0,1,0,0)" fill="#30017e" class="wordmark-text-0" data-fill-palette-color="primary" id="text-0"></path></svg></g></svg></g></svg></g></svg></g><g transform="matrix(1,0,0,1,414.5899774962006,0)"><svg viewBox="0 0 98.3423638788317 98.3423638788317" height="98.3423638788317" width="98.3423638788317"><g><svg></svg></g><g id="icon-0"><svg viewBox="0 0 98.3423638788317 98.3423638788317" height="98.3423638788317" width="98.3423638788317"><g><path d="M0 49.171c0-27.156 22.015-49.171 49.171-49.171 27.156 0 49.171 22.015 49.171 49.171 0 27.156-22.015 49.171-49.171 49.171-27.156 0-49.171-22.015-49.171-49.171zM49.171 94.7c25.145 0 45.529-20.384 45.529-45.529 0-25.145-20.384-45.529-45.529-45.529-25.145 0-45.529 20.384-45.529 45.529 0 25.145 20.384 45.529 45.529 45.529z" data-fill-palette-color="tertiary" fill="#30017e" stroke="transparent"></path></g><g transform="matrix(1,0,0,1,20.71590945387147,33.91265824321625)"><svg viewBox="0 0 56.91054497108877 30.517047392399206" height="30.517047392399206" width="56.91054497108877"><g><svg xmlns="http://www.w3.org/2000/svg" xmlns:xlink="http://www.w3.org/1999/xlink" version="1.1" x="0" y="0" viewBox="6.3 26.56725 87.3970023423078 46.86474999999999" enable-background="new 0 0 100 100" xml:space="preserve" height="30.517047392399206" width="56.91054497108877" class="icon-z$-0" data-fill-palette-color="accent" id="z$-0"><path d="M90.674 48.656v-7.934c0.421-0.271 0.691-0.736 0.691-1.256 0-0.674-0.449-1.265-1.098-1.445L49.234 26.622c-0.262-0.073-0.539-0.073-0.803 0L7.399 38.021c-0.649 0.181-1.099 0.771-1.099 1.445s0.449 1.265 1.099 1.445l16.204 4.501v18.772c0 0.806 0.636 1.467 1.439 1.499 3.021 0.121 6.105 0.568 9.17 1.329 5.254 1.307 10.063 3.478 13.543 6.115 0.26 0.197 0.578 0.305 0.906 0.305h0.42c0.328 0 0.646-0.107 0.906-0.305 3.479-2.638 8.289-4.809 13.543-6.115 3.064-0.761 6.148-1.208 9.17-1.329 0.804-0.032 1.439-0.693 1.439-1.499V45.391l13.533-3.76v7.043c-1.715 0.569-2.963 2.18-2.963 4.094v7.671h8.988v-7.671C93.699 50.832 92.42 49.207 90.674 48.656zM48.834 29.624l29.508 8.197H49.943c-0.828 0-1.5 0.671-1.5 1.5s0.672 1.5 1.5 1.5h29.439l-30.549 8.487-35.429-9.842L48.834 29.624zM71.141 62.767c-2.76 0.197-5.557 0.645-8.333 1.336-5.383 1.337-10.181 3.447-13.936 6.123-3.755-2.676-8.553-4.786-13.937-6.123-2.775-0.691-5.572-1.139-8.332-1.336V46.246l21.828 6.064c0.132 0.036 0.267 0.055 0.402 0.055 0.135 0 0.27-0.019 0.4-0.055l21.906-6.085V62.767zM90.699 57.439h-2.988v-4.671c0-0.734 0.583-1.33 1.301-1.33h0.387c0.717 0 1.301 0.596 1.301 1.33V57.439z" fill="#fb806f" data-fill-palette-color="accent"></path></svg></g></svg></g></svg></g></svg></g></svg></g><defs></defs></svg><rect width="395.52" height="75.83138871119903" fill="none" stroke="none" visibility="hidden"></rect></g></svg></g></svg>